<svg width="13" height="13" viewBox="0 0 13 13" fill="none" xmlns="http://www.w3.org/2000/svg">
<path d="M5.95364 10.0807C5.95364 10.2812 6.0333 10.4735 6.17509 10.6153C6.31687 10.7571 6.50918 10.8367 6.70969 10.8367C6.91021 10.8367 7.10251 10.7571 7.2443 10.6153C7.38609 10.4735 7.46574 10.2812 7.46574 10.0807V6.80449H10.742C10.9425 6.80449 11.1348 6.72483 11.2766 6.58305C11.4183 6.44126 11.498 6.24895 11.498 6.04844C11.498 5.84792 11.4183 5.65562 11.2766 5.51383C11.1348 5.37204 10.9425 5.29239 10.742 5.29239H7.46574V2.01618C7.46574 1.81566 7.38609 1.62336 7.2443 1.48157C7.10251 1.33979 6.91021 1.26013 6.70969 1.26013C6.50918 1.26013 6.31687 1.33979 6.17509 1.48157C6.0333 1.62336 5.95364 1.81566 5.95364 2.01618V5.29239H2.67744C2.47692 5.29239 2.28461 5.37204 2.14283 5.51383C2.00104 5.65562 1.92139 5.84792 1.92139 6.04844C1.92139 6.24895 2.00104 6.44126 2.14283 6.58305C2.28461 6.72483 2.47692 6.80449 2.67744 6.80449H5.95364V10.0807Z" fill="white"/>
</svg>
